<?xml version="1.0" encoding="UTF-8" standalone="no"?>
<svg
   xmlns:dc="http://purl.org/dc/elements/1.1/"
   xmlns:cc="http://creativecommons.org/ns#"
   xmlns:rdf="http://www.w3.org/1999/02/22-rdf-syntax-ns#"
   xmlns:svg="http://www.w3.org/2000/svg"
   xmlns="http://www.w3.org/2000/svg"
   xmlns:sodipodi="http://sodipodi.sourceforge.net/DTD/sodipodi-0.dtd"
   xmlns:inkscape="http://www.inkscape.org/namespaces/inkscape"
   inkscape:version="1.0 (4035a4fb49, 2020-05-01)"
   height="255.3"
   width="255.5"
   sodipodi:docname="HAL_logo-seul-blanc.svg"
   id="svg48"
   xml:space="preserve"
   viewBox="0 0 255.5 255.3"
   y="0px"
   x="0px"
   version="1.1"><metadata
   id="metadata54"><rdf:RDF><cc:Work
       rdf:about=""><dc:format>image/svg+xml</dc:format><dc:type
         rdf:resource="http://purl.org/dc/dcmitype/StillImage" /></cc:Work></rdf:RDF></metadata><defs
   id="defs52">
	

		
		
	</defs><sodipodi:namedview
   inkscape:current-layer="svg48"
   inkscape:window-maximized="1"
   inkscape:window-y="-8"
   inkscape:window-x="-8"
   inkscape:cy="126.95001"
   inkscape:cx="404.2"
   inkscape:zoom="1.1537037"
   showgrid="false"
   id="namedview50"
   inkscape:window-height="1017"
   inkscape:window-width="1920"
   inkscape:pageshadow="2"
   inkscape:pageopacity="0"
   guidetolerance="10"
   gridtolerance="10"
   objecttolerance="10"
   borderopacity="1"
   bordercolor="#666666"
   pagecolor="#ffffff" />
<style
   id="style2"
   type="text/css">
	.st0{display:none;}
	.st1{fill:#FFFFFF;}
	.st2{opacity:0.9;}
	.st3{opacity:0.8;}
	.st4{opacity:0.7;}
	.st5{opacity:0.6;}
	.st6{opacity:0.5;}
	.st7{opacity:0.4;}
</style>
<g
   transform="translate(-135.8,-135.4)"
   class="st0"
   id="Background">
</g>
<g
   transform="translate(-135.8,-135.4)"
   id="g35"
   style="fill:#000000">
			<g
   id="g33"
   style="fill:#000000">
				<g
   id="g7"
   style="fill:#000000">
					<path
   id="path5"
   d="m 336.3,191.5 c 5,5 11.6,7.8 18.7,7.8 0,0 0.1,0 0.1,0 6.1,0 11.8,-2 16.5,-5.8 -9.6,-14.9 -22.2,-27.8 -36.9,-37.6 -3.9,4.7 -6.1,10.6 -6.1,16.8 0,7.2 2.7,13.8 7.7,18.8 z"
   class="st1"
   style="fill:#000000" />
				</g>
				<g
   id="g11"
   class="st2"
   style="fill:#000000">
					<path
   id="path9"
   d="m 328.5,200 c -14.6,-14.5 -22.6,-33.8 -22.5,-54.2 0,-1.4 0.1,-2.8 0.1,-4.1 -8.6,-3 -17.6,-5.2 -26.9,-6.3 -0.4,3.4 -0.5,6.9 -0.5,10.3 -0.1,27.8 10.8,53.9 30.6,73.6 20.5,20.4 47.5,30.6 74.5,30.6 2.5,0 5,-0.1 7.5,-0.3 -1,-9.3 -2.9,-18.4 -5.8,-27 -20.7,0.5 -41.4,-7.1 -57,-22.6 z"
   class="st1"
   style="fill:#000000" />
				</g>
				<g
   id="g15"
   class="st3"
   style="fill:#000000">
					<path
   id="path13"
   d="M 301.4,227.7 C 275,201.4 255.8,170 244.9,135.6 c -9.2,1.3 -18,3.6 -26.5,6.7 12.1,39 33.8,74.9 63.7,104.7 29.3,29.2 64.1,49.8 101.1,62 3.2,-8.4 5.7,-17.2 7.1,-26.4 -32.5,-10.9 -63.1,-29.2 -88.9,-54.9 z"
   class="st1"
   style="fill:#000000" />
				</g>
				<g
   id="g19"
   class="st4"
   style="fill:#000000">
					<path
   id="path17"
   d="m 363.5,343.5 -180,-181.3 c -7.1,5.7 -13.7,12.1 -19.5,19.1 l 180.2,181.5 c 7.1,-5.7 13.6,-12.2 19.3,-19.3 z"
   class="st1"
   style="fill:#000000" />
				</g>
				<g
   id="g23"
   class="st5"
   style="fill:#000000">
					<path
   id="path21"
   d="m 142.9,217.9 c -3.2,8.5 -5.5,17.3 -6.8,26.5 33.4,10.9 64.8,29.4 91.2,55.7 25.8,25.7 44.7,56.4 55.8,89.8 9.2,-1.4 18,-3.8 26.4,-7.1 -12.3,-38.1 -33.6,-73 -62.9,-102.1 -30,-29.8 -65.7,-50.7 -103.7,-62.8 z"
   class="st1"
   style="fill:#000000" />
				</g>
				<g
   id="g27"
   class="st6"
   style="fill:#000000">
					<path
   id="path25"
   d="m 219.5,308.5 c -22.8,-22.7 -53.7,-32.8 -83.7,-30.2 1.1,9.3 3.2,18.3 6.2,26.9 21,-0.8 42.3,6.7 58.3,22.6 14.6,14.5 22.6,33.8 22.5,54.2 0,0.9 0,1.9 -0.1,2.8 8.6,2.9 17.6,4.9 27,5.9 0.2,-2.8 0.4,-5.7 0.4,-8.6 0,-27.7 -10.8,-53.9 -30.6,-73.6 z"
   class="st1"
   style="fill:#000000" />
				</g>
				<g
   id="g31"
   class="st7"
   style="fill:#000000">
					<path
   id="path29"
   d="m 192.5,336.3 c -5,-5 -11.6,-7.8 -18.7,-7.8 0,0 -0.1,0 -0.1,0 -6.3,0 -12.2,2.2 -17,6.2 9.9,14.7 22.8,27.2 37.8,36.7 3.7,-4.6 5.7,-10.3 5.7,-16.3 0,-7.1 -2.8,-13.7 -7.7,-18.8 z"
   class="st1"
   style="fill:#000000" />
				</g>
			</g>
		</g>
</svg>
