<?xml version="1.0" encoding="iso-8859-1"?>
<!-- Generator: Adobe Illustrator 18.0.0, SVG Export Plug-In . SVG Version: 6.00 Build 0)  -->
<!DOCTYPE svg PUBLIC "-//W3C//DTD SVG 1.1//EN" "http://www.w3.org/Graphics/SVG/1.1/DTD/svg11.dtd">
<svg version="1.1" id="Capa_1" xmlns="http://www.w3.org/2000/svg" xmlns:xlink="http://www.w3.org/1999/xlink" x="0px" y="0px"
	 viewBox="0 0 470.674 470.674" style="enable-background:new 0 0 470.674 470.674;" xml:space="preserve">
<g id="XMLID_104_">
	<path id="XMLID_118_" d="M143.653,271.128c1.303-6.949,3.953-13.391,7.6-19.16H96.771c3.646,5.769,6.296,12.211,7.598,19.16
		H143.653z"/>
	<path id="XMLID_117_" d="M291.335,271.128c1.318-6.949,3.971-13.391,7.616-19.16h-54.468c3.646,5.769,6.297,12.211,7.615,19.16
		H291.335z"/>
	<path id="XMLID_116_" d="M62.879,227.737V43.566h344.915v208.401h-15.627c3.647,5.769,6.312,12.211,7.613,19.16h27.182V24.407
		H43.712v202.357c2.146-0.254,4.244-0.65,6.435-0.65C54.56,226.114,58.772,226.765,62.879,227.737z"/>
	<path id="XMLID_115_" d="M345.56,226.114c11.506,0,22.17,3.537,31.01,9.567h16.057V59.854H77.25v173.651
		c1.302,0.744,2.696,1.342,3.923,2.176h85.678c8.855-6.029,19.52-9.567,31.025-9.567c11.49,0,22.17,3.537,31.012,9.567h85.66
		C323.388,229.651,334.067,226.114,345.56,226.114z"/>
	<path id="XMLID_114_" d="M189.097,384.958l4.107,8.985c3.859,0,7.69,0,11.566,0l4.106-8.985c3.939-8.665,11.552-14.955,20.53-17.52
		c-7.293-9.362-11.828-20.982-11.828-33.745c0-1.518,0.337-2.942,0.461-4.429c-5.822-0.008-12.963-0.016-20.164-0.016
		c-6.298,0-12.564,0.008-17.941,0.016c0.123,1.479,0.459,2.911,0.459,4.429c0,12.763-4.534,24.383-11.828,33.745
		C177.528,369.997,185.159,376.293,189.097,384.958z"/>
	<path id="XMLID_113_" d="M61.163,384.935c3.969-8.65,11.582-14.938,20.53-17.496c-7.292-9.362-11.828-20.982-11.828-33.745
		c0-1.518,0.337-2.942,0.46-4.429c-5.836-0.008-12.961-0.016-20.178-0.016c-16.211,0-32.42,0.03-32.834,0.086
		c-6.986-0.684-13.988,2.925-17.084,9.696L0,393.943c15.734,0,35.301,0,57.057,0L61.163,384.935z"/>
	<path id="XMLID_112_" d="M336.827,384.958l4.09,8.985c3.846,0,7.813,0,11.551,0l4.092-8.985
		c3.953-8.665,11.568-14.955,20.545-17.52c-7.291-9.362-11.827-20.982-11.827-33.745c0-1.518,0.321-2.942,0.444-4.429
		c-5.821-0.008-12.961-0.016-20.162-0.016c-6.282,0-12.533,0.008-17.897,0.016c0.108,1.479,0.445,2.911,0.445,4.429
		c0,12.763-4.535,24.383-11.828,33.745C325.228,369.997,332.841,376.293,336.827,384.958z"/>
	<path id="XMLID_111_" d="M27.212,313.829c6.494,4.589,14.387,7.346,22.935,7.346c8.565,0,16.453-2.757,22.936-7.346
		c0.292-0.207,0.553-0.476,0.842-0.691c3.126-7.775,8.029-14.578,14.127-20.132c1.135-3.699,1.932-7.56,1.932-11.637
		c0-22.009-17.835-39.827-39.836-39.827c-21.986,0-39.82,17.818-39.82,39.827C10.327,294.8,17.022,306.619,27.212,313.829z"/>
	<path id="XMLID_110_" d="M237.696,281.369c0-22.009-17.834-39.827-39.82-39.827c-21.986,0-39.836,17.818-39.836,39.827
		c0,3.165,0.475,6.206,1.166,9.163c8.027,6.343,14.201,14.777,17.74,24.567c6.099,3.792,13.223,6.075,20.93,6.075
		c8.549,0,16.44-2.757,22.936-7.346c0.275-0.207,0.537-0.476,0.828-0.691c3.126-7.775,8.028-14.578,14.141-20.132
		C236.9,289.307,237.696,285.446,237.696,281.369z"/>
	<path id="XMLID_109_" d="M385.396,281.369c0-22.009-17.85-39.827-39.836-39.827s-39.836,17.818-39.836,39.827
		c0,3.157,0.459,6.184,1.164,9.125c8.043,6.357,14.25,14.808,17.787,24.629c6.084,3.769,13.193,6.052,20.885,6.052
		c8.565,0,16.438-2.757,22.936-7.346c0.291-0.207,0.553-0.476,0.826-0.691c3.142-7.775,8.044-14.578,14.143-20.132
		C384.599,289.307,385.396,285.446,385.396,281.369z"/>
	<path id="XMLID_108_" d="M470.458,391.362c-3.064-6.726-10.034-10.394-17.082-9.707c-0.414-0.053-16.625-0.084-32.85-0.084
		c-16.226,0-32.435,0.031-32.848,0.084c-7.019-0.688-13.988,2.95-17.068,9.707l-23.933,52.414l-23.902-52.414
		c-3.079-6.726-10.034-10.394-17.099-9.707c-0.397-0.053-16.607-0.084-32.85-0.084c-16.21,0-32.434,0.031-32.832,0.084
		c-7.018-0.688-14.004,2.95-17.068,9.707l-23.932,52.43l-23.934-52.43c-3.079-6.757-10.05-10.394-17.083-9.707
		c-0.398-0.053-16.622-0.084-32.833-0.084c-16.225,0-32.451,0.031-32.85,0.084c-7.002-0.68-13.988,2.927-17.098,9.707
		l-25.051,54.904c94.395,0,317.887,0,420.526,0L470.458,391.362z"/>
	<path id="XMLID_107_" d="M125.13,373.497c21.541,0,39.834-17.62,39.834-39.804c0-22.009-17.847-39.821-39.834-39.821
		c-21.986,0-39.836,17.813-39.836,39.821C85.294,355.877,103.573,373.497,125.13,373.497z"/>
	<path id="XMLID_106_" d="M272.843,373.497c21.558,0,39.836-17.62,39.836-39.804c0-22.009-17.849-39.821-39.836-39.821
		c-21.984,0-39.82,17.813-39.82,39.821C233.023,355.877,251.302,373.497,272.843,373.497z"/>
	<path id="XMLID_105_" d="M380.706,333.693c0,22.184,18.279,39.804,39.836,39.804c21.541,0,39.82-17.62,39.82-39.804
		c0-22.009-17.834-39.821-39.82-39.821C398.54,293.872,380.706,311.685,380.706,333.693z"/>
</g>
<g>
</g>
<g>
</g>
<g>
</g>
<g>
</g>
<g>
</g>
<g>
</g>
<g>
</g>
<g>
</g>
<g>
</g>
<g>
</g>
<g>
</g>
<g>
</g>
<g>
</g>
<g>
</g>
<g>
</g>
</svg>
