<?xml version="1.0" encoding="UTF-8" standalone="no"?>
<!-- Created with Inkscape (http://www.inkscape.org/) -->

<svg
   width="357.18991"
   height="145.64722"
   id="svg2"
   version="1.1"
   inkscape:version="1.2.1 (9c6d41e410, 2022-07-14)"
   sodipodi:docname="mini_batch.svg"
   xmlns:inkscape="http://www.inkscape.org/namespaces/inkscape"
   xmlns:sodipodi="http://sodipodi.sourceforge.net/DTD/sodipodi-0.dtd"
   xmlns="http://www.w3.org/2000/svg"
   xmlns:svg="http://www.w3.org/2000/svg"
   xmlns:rdf="http://www.w3.org/1999/02/22-rdf-syntax-ns#"
   xmlns:cc="http://creativecommons.org/ns#"
   xmlns:dc="http://purl.org/dc/elements/1.1/">
  <defs
     id="defs4" />
  <sodipodi:namedview
     id="base"
     pagecolor="#ffffff"
     bordercolor="#666666"
     borderopacity="1.0"
     inkscape:pageopacity="0.0"
     inkscape:pageshadow="2"
     inkscape:zoom="1.979899"
     inkscape:cx="216.93026"
     inkscape:cy="63.387072"
     inkscape:document-units="px"
     inkscape:current-layer="layer1"
     showgrid="true"
     inkscape:window-width="1920"
     inkscape:window-height="1001"
     inkscape:window-x="-9"
     inkscape:window-y="-9"
     inkscape:window-maximized="1"
     inkscape:showpageshadow="2"
     inkscape:pagecheckerboard="0"
     inkscape:deskcolor="#d1d1d1">
    <inkscape:grid
       type="xygrid"
       id="grid2985"
       originx="-54.16795"
       originy="-56.862183" />
  </sodipodi:namedview>
  <metadata
     id="metadata7">
    <rdf:RDF>
      <cc:Work
         rdf:about="">
        <dc:format>image/svg+xml</dc:format>
        <dc:type
           rdf:resource="http://purl.org/dc/dcmitype/StillImage" />
        <dc:title />
      </cc:Work>
    </rdf:RDF>
  </metadata>
  <g
     inkscape:label="Layer 1"
     inkscape:groupmode="layer"
     id="layer1"
     transform="translate(-54.16795,-56.862183)">
    <ellipse
       style="fill:none;fill-opacity:1;stroke:#000000;stroke-width:1;stroke-linecap:round;stroke-miterlimit:4;stroke-dasharray:none;stroke-dashoffset:0;stroke-opacity:1"
       id="path2987"
       cx="147.5"
       cy="127.36218"
       rx="72.5"
       ry="70"
       inkscape:export-filename="mini_batch_00.png"
       inkscape:export-xdpi="150"
       inkscape:export-ydpi="150" />
    <ellipse
       style="fill:none;stroke:#000000;stroke-width:1;stroke-linecap:round;stroke-miterlimit:4;stroke-dasharray:none;stroke-dashoffset:0;stroke-opacity:1"
       id="path3757"
       cx="157.5"
       cy="132.36218"
       rx="52.5"
       ry="45" />
    <ellipse
       style="fill:none;stroke:#000000;stroke-width:1;stroke-linecap:round;stroke-miterlimit:4;stroke-dasharray:none;stroke-dashoffset:0;stroke-opacity:1"
       id="path3759"
       cx="165"
       cy="147.36218"
       rx="30"
       ry="20" />
    <ellipse
       style="fill:none;stroke:#000000;stroke-width:1;stroke-linecap:round;stroke-miterlimit:4;stroke-dasharray:none;stroke-dashoffset:0;stroke-opacity:1"
       id="path3761"
       cx="175"
       cy="152.36218"
       rx="10"
       ry="5" />
    <ellipse
       transform="translate(190.85786,4.6472119)"
       style="fill:none;stroke:#000000;stroke-width:1;stroke-linecap:round;stroke-miterlimit:4;stroke-dasharray:none;stroke-dashoffset:0;stroke-opacity:1"
       id="path2987-3"
       cx="147.5"
       cy="127.36218"
       rx="72.5"
       ry="70"
       inkscape:export-filename="mini_batch_01.png"
       inkscape:export-xdpi="150"
       inkscape:export-ydpi="150" />
    <ellipse
       transform="translate(190.85786,4.6472119)"
       style="fill:none;stroke:#000000;stroke-width:1;stroke-linecap:round;stroke-miterlimit:4;stroke-dasharray:none;stroke-dashoffset:0;stroke-opacity:1"
       id="path3757-6"
       cx="157.5"
       cy="132.36218"
       rx="52.5"
       ry="45"
       inkscape:export-filename="mini_batch_01.png"
       inkscape:export-xdpi="150"
       inkscape:export-ydpi="150" />
    <ellipse
       transform="translate(190.85786,4.6472119)"
       style="fill:none;stroke:#000000;stroke-width:1;stroke-linecap:round;stroke-miterlimit:4;stroke-dasharray:none;stroke-dashoffset:0;stroke-opacity:1"
       id="path3759-7"
       cx="165"
       cy="147.36218"
       rx="30"
       ry="20" />
    <ellipse
       transform="translate(190.85786,4.6472119)"
       style="fill:none;stroke:#000000;stroke-width:1;stroke-linecap:round;stroke-miterlimit:4;stroke-dasharray:none;stroke-dashoffset:0;stroke-opacity:1"
       id="path3761-5"
       cx="175"
       cy="152.36218"
       rx="10"
       ry="5" />
    <path
       style="fill:none;stroke:#ff0000;stroke-width:3;stroke-linecap:butt;stroke-linejoin:miter;stroke-miterlimit:4;stroke-dasharray:none;stroke-opacity:1"
       d="m 55,117.36218 15,-10 -5,25 15,-5 5,-15 10,10 -15,10 h 15 l 10,-15 -10,-10 -20,-14.999997 20,-5 -5,10 15,4.999997 30,5 -20,5 c 0,0 15,10 10,10 -5,0 -20,10 -20,10 l -5,20 h 15 l 5,-10 h 15 l -10,20 v 20 l 5,-10 10,-15 h 10 l 5,15 c 0,0 5,5 5,0 0,-5 -5,-15 -5,-15 l -10,-10 v -25 l 15,5 10,10 -10,5 h 10 15 v 10 h -5 v 10 l -10,-10"
       id="path3790"
       inkscape:connector-curvature="0" />
    <path
       style="fill:none;stroke:#ff0000;stroke-width:3;stroke-linecap:butt;stroke-linejoin:miter;stroke-miterlimit:4;stroke-dasharray:none;stroke-opacity:1"
       d="m 270,67.362183 50,15 -20,34.999997 55,-5 -20,30 h 30 l 5,15"
       id="path3792"
       inkscape:connector-curvature="0" />
  </g>
</svg>
