<?xml version="1.0" encoding="UTF-8" standalone="no"?>
<!-- Created with Inkscape (http://www.inkscape.org/) -->

<svg
   width="744.09448819"
   height="1052.3622047"
   id="svg2"
   version="1.1"
   inkscape:version="1.2.1 (9c6d41e410, 2022-07-14)"
   sodipodi:docname="convolution_2.svg"
   xmlns:inkscape="http://www.inkscape.org/namespaces/inkscape"
   xmlns:sodipodi="http://sodipodi.sourceforge.net/DTD/sodipodi-0.dtd"
   xmlns="http://www.w3.org/2000/svg"
   xmlns:svg="http://www.w3.org/2000/svg"
   xmlns:rdf="http://www.w3.org/1999/02/22-rdf-syntax-ns#"
   xmlns:cc="http://creativecommons.org/ns#"
   xmlns:dc="http://purl.org/dc/elements/1.1/">
  <defs
     id="defs4">
    <marker
       inkscape:stockid="Arrow2Mend"
       orient="auto"
       refY="0"
       refX="0"
       id="Arrow2Mend"
       style="overflow:visible">
      <path
         id="path3853"
         style="fill-rule:evenodd;stroke-width:0.625;stroke-linejoin:round"
         d="M 8.7185878,4.0337352 -2.2072895,0.01601326 8.7185884,-4.0017078 c -1.7454984,2.3720609 -1.7354408,5.6174519 -6e-7,8.035443 z"
         transform="scale(-0.6)" />
    </marker>
    <marker
       inkscape:stockid="Arrow2Mend"
       orient="auto"
       refY="0"
       refX="0"
       id="Arrow2Mend-9"
       style="overflow:visible">
      <path
         inkscape:connector-curvature="0"
         id="path3853-3"
         style="fill-rule:evenodd;stroke-width:0.625;stroke-linejoin:round"
         d="M 8.7185878,4.0337352 -2.2072895,0.01601326 8.7185884,-4.0017078 c -1.7454984,2.3720609 -1.7354408,5.6174519 -6e-7,8.035443 z"
         transform="scale(-0.6,-0.6)" />
    </marker>
  </defs>
  <sodipodi:namedview
     id="base"
     pagecolor="#ffffff"
     bordercolor="#666666"
     borderopacity="1.0"
     inkscape:pageopacity="0.0"
     inkscape:pageshadow="2"
     inkscape:zoom="1.4"
     inkscape:cx="376.78571"
     inkscape:cy="247.85714"
     inkscape:document-units="px"
     inkscape:current-layer="layer1"
     showgrid="true"
     inkscape:window-width="1920"
     inkscape:window-height="1017"
     inkscape:window-x="1912"
     inkscape:window-y="-8"
     inkscape:window-maximized="1"
     inkscape:showpageshadow="2"
     inkscape:pagecheckerboard="0"
     inkscape:deskcolor="#d1d1d1">
    <inkscape:grid
       type="xygrid"
       id="grid2985" />
  </sodipodi:namedview>
  <metadata
     id="metadata7">
    <rdf:RDF>
      <cc:Work
         rdf:about="">
        <dc:format>image/svg+xml</dc:format>
        <dc:type
           rdf:resource="http://purl.org/dc/dcmitype/StillImage" />
        <dc:title />
      </cc:Work>
    </rdf:RDF>
  </metadata>
  <g
     inkscape:label="Layer 1"
     inkscape:groupmode="layer"
     id="layer1">
    <rect
       style="fill:#cccccc;fill-opacity:1;stroke:none"
       id="rect4266-0"
       width="30"
       height="30"
       x="310.60223"
       y="402.91803"
       inkscape:export-filename="convolution2.png"
       inkscape:export-xdpi="200"
       inkscape:export-ydpi="200" />
    <rect
       style="fill:#f2f2f2;fill-opacity:1;stroke:none"
       id="rect4266-27"
       width="30"
       height="30"
       x="280.2403"
       y="402.32101" />
    <rect
       style="fill:#cccccc;fill-opacity:1;stroke:none"
       id="rect4266-1"
       width="30"
       height="30"
       x="250.26785"
       y="402.6655" />
    <rect
       style="fill:#ffffff;fill-opacity:1;stroke:none"
       id="rect4266-6"
       width="30"
       height="30"
       x="310.44644"
       y="372.45148" />
    <rect
       style="fill:#000000;fill-opacity:1;stroke:none"
       id="rect4266-2"
       width="30"
       height="30"
       x="280.41577"
       y="372.40073" />
    <rect
       style="fill:#ffffff;fill-opacity:1;stroke:none"
       id="rect4266-9"
       width="30"
       height="30"
       x="250.44334"
       y="372.34686" />
    <rect
       style="fill:#ececec;fill-opacity:1;stroke:none"
       id="rect4266-3"
       width="30"
       height="30"
       x="280.36984"
       y="342.65326" />
    <rect
       style="fill:#cccccc;fill-opacity:1;stroke:none"
       id="rect4266"
       width="30"
       height="30"
       x="250.32651"
       y="342.45148" />
    <rect
       style="fill:#cccccc;fill-opacity:1;stroke:none"
       id="rect4266-5"
       width="30"
       height="30"
       x="310.50818"
       y="342.66064" />
    <path
       style="fill:none;stroke:#ff0000;stroke-width:3;stroke-linecap:butt;stroke-linejoin:miter;stroke-miterlimit:4;stroke-dasharray:none;stroke-opacity:1"
       d="m 320,162.36218 c 80,0 80,0 80,0"
       id="path3009-3-5"
       inkscape:connector-curvature="0"
       sodipodi:nodetypes="cc" />
    <path
       style="fill:#ffadad;fill-opacity:1;stroke:#000000;stroke-width:1px;stroke-linecap:butt;stroke-linejoin:miter;stroke-opacity:1"
       d="m 99.28571,132.36218 90,-60 0,120 -90,60 z"
       id="path3836-0"
       inkscape:connector-curvature="0" />
    <path
       style="fill:none;stroke:#000000;stroke-width:1px;stroke-linecap:butt;stroke-linejoin:miter;stroke-opacity:1"
       d="m 129.28571,312.36218 0,-200 30,-20 0,200 30,-20 0,-200 30,-20 0,200 30,-20 0,-200 30,-20 0,200 -180,120 0,-40 180,-120 0,-40 -180,120 0,-40 180,-120 0,-40 -180,120 0,-40 180,-120"
       id="path2989-9"
       inkscape:connector-curvature="0"
       sodipodi:nodetypes="ccccccccccccccccccccccc" />
    <path
       style="fill:none;stroke:#000000;stroke-width:1px;stroke-linecap:butt;stroke-linejoin:miter;stroke-opacity:1"
       d="m 99.28571,332.36218 0,-200 180,-120 0,200 z"
       id="path2991-3"
       inkscape:connector-curvature="0" />
    <path
       style="fill:none;stroke:#ff0000;stroke-width:3;stroke-linecap:butt;stroke-linejoin:miter;stroke-miterlimit:4;stroke-opacity:1;stroke-dasharray:none"
       d="M 114.28571,140.93361 C 265,134.50504 320.71428,161.6479 320.71428,161.6479"
       id="path3005-0"
       inkscape:connector-curvature="0"
       sodipodi:nodetypes="cc" />
    <path
       style="fill:none;stroke:#ff0000;stroke-width:3;stroke-linecap:butt;stroke-linejoin:miter;stroke-miterlimit:4;stroke-opacity:1;stroke-dasharray:none"
       d="m 142.14285,123.79075 c 136.42857,-0.71428 180,36.42857 180,36.42857"
       id="path3007-2"
       inkscape:connector-curvature="0"
       sodipodi:nodetypes="cc" />
    <path
       style="fill:none;stroke:#ff0000;stroke-width:3;stroke-linecap:butt;stroke-linejoin:miter;stroke-miterlimit:4;stroke-opacity:1;stroke-dasharray:none"
       d="m 170,103.07647 c 94.99999,-2.85715 154.28571,56.42857 154.28571,56.42857"
       id="path3009-3"
       inkscape:connector-curvature="0"
       sodipodi:nodetypes="cc" />
    <path
       style="fill:none;stroke:#ff0000;stroke-width:3;stroke-linecap:butt;stroke-linejoin:miter;stroke-miterlimit:4;stroke-opacity:1;stroke-dasharray:none"
       d="m 116.42857,178.79075 c 178.57143,5 207.85714,-15.71428 207.85714,-15.71428"
       id="path3011-7"
       inkscape:connector-curvature="0"
       sodipodi:nodetypes="cc" />
    <path
       style="fill:none;stroke:#ff0000;stroke-width:3;stroke-linecap:butt;stroke-linejoin:miter;stroke-miterlimit:4;stroke-opacity:1;stroke-dasharray:none"
       d="m 144.28571,160.21932 c 169.28571,12.14286 179.28571,1.42857 179.28571,1.42857"
       id="path3013-5"
       inkscape:connector-curvature="0"
       sodipodi:nodetypes="cc" />
    <path
       style="fill:none;stroke:#ff0000;stroke-width:3;stroke-linecap:butt;stroke-linejoin:miter;stroke-miterlimit:4;stroke-opacity:1;stroke-dasharray:none"
       d="m 174.28571,140.93361 c 142.14286,13.57143 150.71428,20.71428 150.71428,20.71428"
       id="path3015-9"
       inkscape:connector-curvature="0"
       sodipodi:nodetypes="cc" />
    <path
       style="fill:none;stroke:#ff0000;stroke-width:3;stroke-linecap:butt;stroke-linejoin:miter;stroke-miterlimit:4;stroke-opacity:1;stroke-dasharray:none"
       d="M 113.57142,222.36218 C 265.71428,220.93361 323.57143,161.6479 323.57143,161.6479"
       id="path3017-2"
       inkscape:connector-curvature="0"
       sodipodi:nodetypes="cc" />
    <path
       style="fill:none;stroke:#ff0000;stroke-width:3;stroke-linecap:butt;stroke-linejoin:miter;stroke-miterlimit:4;stroke-opacity:1;stroke-dasharray:none"
       d="m 143.57142,199.50504 c 174.28572,-0.71429 181.42857,-37.85715 181.42857,-37.85715"
       id="path3019-28"
       inkscape:connector-curvature="0"
       sodipodi:nodetypes="cc" />
    <path
       style="fill:none;stroke:#ff0000;stroke-width:3;stroke-linecap:butt;stroke-linejoin:miter;stroke-miterlimit:4;stroke-opacity:1;stroke-dasharray:none"
       d="m 177.85714,178.07647 c 127.85714,-0.71429 145,-16.42857 145,-16.42857"
       id="path3021-97"
       inkscape:connector-curvature="0"
       sodipodi:nodetypes="cc" />
    <path
       sodipodi:type="arc"
       style="fill:#ff0000;fill-opacity:1;stroke:none"
       id="path2993-3"
       sodipodi:cx="305"
       sodipodi:cy="187.36218"
       sodipodi:rx="15"
       sodipodi:ry="15"
       d="m 320,187.36218 a 15,15 0 1 1 -30,0 15,15 0 1 1 30,0 z"
       transform="matrix(0.91724365,0,0,0.91958531,43.705638,-6.4295219)" />
    <path
       style="fill:#ffadad;fill-opacity:1;stroke:#000000;stroke-width:1px;stroke-linecap:butt;stroke-linejoin:miter;stroke-opacity:1"
       d="m 380,152.36218 30,-20 0,40 -30,20 z"
       id="path3836-0-3"
       inkscape:connector-curvature="0"
       sodipodi:nodetypes="ccccc" />
    <path
       style="fill:none;stroke:#000000;stroke-width:1px;stroke-linecap:butt;stroke-linejoin:miter;stroke-opacity:1"
       d="m 410,291.64789 0,-160 30,-20 0,160 30,-20 0,-159.999996 30,-20 0,159.999996 0,0 0,-120 0,-39.999993 0,159.999993 -120,80 0,0 120,-80 0,-40 -120,80 0,-40 120,-80 0,-40 -120,80 0,-40 120,-79.999993"
       id="path2989-9-6"
       inkscape:connector-curvature="0"
       sodipodi:nodetypes="ccccccccccccccccccccccc" />
    <path
       style="fill:none;stroke:#000000;stroke-width:1px;stroke-linecap:butt;stroke-linejoin:miter;stroke-opacity:1"
       d="m 379.28571,311.64789 0,-160 120,-79.999993 0,159.999993 z"
       id="path2991-3-7"
       inkscape:connector-curvature="0"
       sodipodi:nodetypes="ccccc" />
    <path
       style="fill:none;stroke:#000000;stroke-width:1px;stroke-linecap:butt;stroke-linejoin:miter;stroke-opacity:1"
       d="m 280.5484,342.65804 0,90 30,0 0,-90 30,0 0,30 -90,0 0,30 90,0 0,30 -90,0 0,-90 90,0 0,60"
       id="path3026"
       inkscape:connector-curvature="0" />
    <path
       style="fill:none;stroke:#000000;stroke-width:3;stroke-linecap:butt;stroke-linejoin:miter;stroke-opacity:1;marker-end:url(#Arrow2Mend);stroke-miterlimit:4;stroke-dasharray:none"
       d="m 290,332.36218 c 40,-60 40,-140 40,-140"
       id="path3052"
       inkscape:connector-curvature="0" />
  </g>
</svg>
